<?xml version="1.0" encoding="utf-8"?>
<!-- Generator: Adobe Illustrator 26.3.1, SVG Export Plug-In . SVG Version: 6.00 Build 0)  -->
<svg version="1.1" id="Capa_1" xmlns="http://www.w3.org/2000/svg" xmlns:xlink="http://www.w3.org/1999/xlink" x="0px" y="0px"
	 viewBox="0 0 30 30" style="enable-background:new 0 0 30 30;" xml:space="preserve">
<style type="text/css">
	.st0{fill:#1D2375;}
	.st1{fill:#D50E48;}
	.st2{fill:#3A42A8;}
	.st3{fill:#2E3190;}
	.st4{fill:#00A0B3;}
	.st5{fill:#FD2A5C;}
	.st6{fill:#ECEEEE;}
	.st7{fill:#FC5F88;}
	.st8{fill:#B7CACE;}
	.st9{fill:#96A4A6;}
</style>
<g>
	<g>
		<path class="st0" d="M2.14,15.64v-2.3h1.97v0.33h0.33v0.98H3.78v0.33h0.33v0.33h0.33v0.33H3.45v-0.33H3.13v-0.33H2.8v0.66H2.14z
			 M2.8,14.66h0.66v-0.33h0.33v-0.66H2.8V14.66z"/>
		<path class="st1" d="M4.47,15.67H3.43v-0.33H3.1v-0.33H2.83v0.66H2.11v-2.35h2.02v0.33h0.33v1.04H3.81v0.27h0.33v0.33h0.33V15.67z
			 M3.48,15.62h0.93v-0.27H4.08v-0.33H3.76v-0.38h0.66V13.7H4.08v-0.33H2.17v2.24h0.6v-0.66h0.38v0.33h0.33V15.62z M3.48,14.69H2.77
			v-1.04h1.04v0.71H3.48V14.69z M2.83,14.63h0.6V14.3h0.33v-0.6H2.83V14.63z"/>
	</g>
	<g>
		<path class="st0" d="M5.1,15.64v-0.33H4.77v-0.98H5.1V14h1.64v0.33h0.33v0.66H5.42v0.33h1.31v0.33H5.1z M5.42,14.66h0.98v-0.33
			H5.42V14.66z"/>
		<path class="st1" d="M6.76,15.67h-1.7v-0.33H4.74V14.3h0.33v-0.33h1.7v0.33h0.33v0.71H5.45v0.27h1.31V15.67z M5.12,15.62h1.59
			v-0.27H5.4v-0.38h1.64v-0.6H6.71v-0.33H5.12v0.33H4.79v0.93h0.33V15.62z M6.43,14.69H5.4V14.3h1.04V14.69z M5.45,14.63h0.93v-0.27
			H5.45V14.63z"/>
	</g>
	<g>
		<path class="st0" d="M8.38,15.64v-1.31H7.72V14h0.66v-0.66h0.66V14h0.66v0.33H9.03v1.31H8.38z"/>
		<path class="st1" d="M9.06,15.67H8.35v-1.31H7.69v-0.38h0.66v-0.66h0.71v0.66h0.66v0.38H9.06V15.67z M8.4,15.62H9V14.3h0.66v-0.27
			H9v-0.66H8.4v0.66H7.75v0.27H8.4V15.62z"/>
	</g>
	<g>
		<path class="st0" d="M11,14.33h0.33v0.33H11v0.98h-0.66V14H11V14.33z M12.31,14v0.33h-0.98V14H12.31z"/>
		<path class="st1" d="M11.03,15.67h-0.71v-1.7h0.71v0.33h0.27v-0.33h1.04v0.38h-0.98v0.33h-0.33V15.67z M10.37,15.62h0.6v-0.98
			h0.33v-0.27h-0.33v-0.33h-0.6V15.62z M11.36,14.3h0.93v-0.27h-0.93V14.3z"/>
	</g>
	<g>
		<path class="st0" d="M12.97,15.64v-0.33h-0.33v-0.98h0.33V14h1.64v0.33h0.33v0.98h-0.33v0.33H12.97z M13.3,15.32h0.98v-0.98H13.3
			V15.32z"/>
		<path class="st1" d="M14.64,15.67h-1.7v-0.33h-0.33V14.3h0.33v-0.33h1.7v0.33h0.33v1.04h-0.33V15.67z M13,15.62h1.59v-0.33h0.33
			v-0.93h-0.33v-0.33H13v0.33h-0.33v0.93H13V15.62z M14.31,15.34h-1.04V14.3h1.04V15.34z M13.32,15.29h0.93v-0.93h-0.93V15.29z"/>
	</g>
	<g>
		<path class="st0" d="M15.59,15.64v-0.33h-0.33v-0.33h0.66v0.33h0.98v-0.66h-1.31v-0.33h-0.33v-0.66h0.33v-0.33h1.64v0.33h0.33V14
			h-0.66v-0.33h-0.98v0.66h1.31v0.33h0.33v0.66h-0.33v0.33H15.59z"/>
		<path class="st1" d="M17.26,15.67h-1.7v-0.33h-0.33v-0.38h0.71v0.33h0.93v-0.6h-1.31v-0.33h-0.33v-0.71h0.33v-0.33h1.7v0.33h0.33
			v0.38h-0.71V13.7h-0.93v0.6h1.31v0.33h0.33v0.71h-0.33V15.67z M15.62,15.62h1.59v-0.33h0.33v-0.6h-0.33v-0.33h-1.31v-0.71h1.04
			v0.33h0.6V13.7h-0.33v-0.33h-1.59v0.33h-0.33v0.6h0.33v0.33h1.31v0.71h-1.04v-0.33h-0.6v0.27h0.33V15.62z"/>
	</g>
	<g>
		<path class="st0" d="M17.89,15.64v-2.3h0.66V14h1.31v0.33h0.33v1.31h-0.66v-1.31h-0.98v1.31H17.89z"/>
		<path class="st1" d="M20.21,15.67H19.5v-1.31h-0.93v1.31h-0.71v-2.35h0.71v0.66h1.31v0.33h0.33V15.67z M19.56,15.62h0.6v-1.26
			h-0.33v-0.33h-1.31v-0.66h-0.6v2.24h0.6V14.3h1.04V15.62z"/>
	</g>
	<g>
		<path class="st0" d="M20.84,15.64v-0.33h-0.33v-0.98h0.33V14h1.64v0.33h0.33v0.98h-0.33v0.33H20.84z M21.17,15.32h0.98v-0.98
			h-0.98V15.32z"/>
		<path class="st1" d="M22.51,15.67h-1.7v-0.33h-0.33V14.3h0.33v-0.33h1.7v0.33h0.33v1.04h-0.33V15.67z M20.87,15.62h1.59v-0.33
			h0.33v-0.93h-0.33v-0.33h-1.59v0.33h-0.33v0.93h0.33V15.62z M22.18,15.34h-1.04V14.3h1.04V15.34z M21.2,15.29h0.93v-0.93H21.2
			V15.29z"/>
	</g>
	<g>
		<path class="st0" d="M23.14,15.97V14h1.97v0.33h0.33v0.66h-0.33v0.33H23.8v0.66H23.14z M23.8,14.99h0.98v-0.66H23.8V14.99z"/>
		<path class="st1" d="M23.82,16h-0.71v-2.02h2.02v0.33h0.33v0.71h-0.33v0.33h-1.31V16z M23.17,15.94h0.6v-0.66h1.31v-0.33h0.33
			v-0.6h-0.33v-0.33h-1.91V15.94z M24.81,15.02h-1.04V14.3h1.04V15.02z M23.82,14.96h0.93v-0.6h-0.93V14.96z"/>
	</g>
</g>
<g>
	<rect x="28.83" y="16.16" class="st2" width="0.17" height="0.17"/>
	<rect x="28.83" y="15.99" class="st2" width="0.17" height="0.17"/>
	<rect x="28.83" y="15.83" class="st2" width="0.17" height="0.17"/>
	<rect x="28.83" y="15.66" class="st2" width="0.17" height="0.17"/>
	<rect x="28.83" y="15.49" class="st2" width="0.17" height="0.17"/>
	<rect x="28.67" y="16.33" class="st0" width="0.17" height="0.17"/>
	<rect x="28.67" y="16.16" class="st0" width="0.17" height="0.17"/>
	<rect x="28.67" y="15.99" class="st3" width="0.17" height="0.17"/>
	<rect x="28.67" y="15.83" class="st3" width="0.17" height="0.17"/>
	<rect x="28.67" y="15.66" class="st3" width="0.17" height="0.17"/>
	<rect x="28.67" y="15.49" class="st3" width="0.17" height="0.17"/>
	<rect x="28.67" y="15.33" class="st2" width="0.17" height="0.17"/>
	<rect x="28.5" y="16.49" class="st4" width="0.17" height="0.17"/>
	<rect x="28.5" y="16.33" class="st0" width="0.17" height="0.17"/>
	<rect x="28.5" y="16.16" class="st5" width="0.17" height="0.17"/>
	<rect x="28.5" y="15.99" class="st3" width="0.17" height="0.17"/>
	<rect x="28.5" y="15.83" class="st3" width="0.17" height="0.17"/>
	<rect x="28.5" y="15.66" class="st3" width="0.17" height="0.17"/>
	<rect x="28.5" y="15.49" class="st3" width="0.17" height="0.17"/>
	<rect x="28.5" y="15.33" class="st2" width="0.17" height="0.17"/>
	<rect x="28.33" y="16.49" class="st4" width="0.17" height="0.17"/>
	<rect x="28.33" y="16.33" class="st0" width="0.17" height="0.17"/>
	<rect x="28.33" y="16.16" class="st0" width="0.17" height="0.17"/>
	<rect x="28.33" y="15.99" class="st3" width="0.17" height="0.17"/>
	<rect x="28.33" y="15.83" class="st3" width="0.17" height="0.17"/>
	<rect x="28.33" y="15.66" class="st3" width="0.17" height="0.17"/>
	<rect x="28.33" y="15.49" class="st3" width="0.17" height="0.17"/>
	<rect x="28.33" y="15.33" class="st2" width="0.17" height="0.17"/>
	<rect x="28.33" y="13.66" class="st6" width="0.17" height="0.17"/>
	<rect x="28.33" y="13.49" class="st6" width="0.17" height="0.17"/>
	<rect x="28.33" y="13.33" class="st6" width="0.17" height="0.17"/>
	<rect x="28.33" y="13.16" class="st6" width="0.17" height="0.17"/>
	<rect x="28.33" y="12.99" class="st6" width="0.17" height="0.17"/>
	<rect x="28.17" y="16.49" class="st4" width="0.17" height="0.17"/>
	<rect x="28.17" y="16.33" class="st0" width="0.17" height="0.17"/>
	<rect x="28.17" y="16.16" class="st5" width="0.17" height="0.17"/>
	<rect x="28.17" y="15.99" class="st3" width="0.17" height="0.17"/>
	<rect x="28.17" y="15.83" class="st3" width="0.17" height="0.17"/>
	<rect x="28.17" y="15.66" class="st3" width="0.17" height="0.17"/>
	<rect x="28.17" y="15.49" class="st3" width="0.17" height="0.17"/>
	<rect x="28.17" y="15.33" class="st2" width="0.17" height="0.17"/>
	<rect x="28.17" y="13.83" class="st5" width="0.17" height="0.17"/>
	<rect x="28.17" y="13.66" class="st7" width="0.17" height="0.17"/>
	<rect x="28.17" y="13.49" class="st7" width="0.17" height="0.17"/>
	<rect x="28.17" y="13.33" class="st7" width="0.17" height="0.17"/>
	<rect x="28.17" y="13.16" class="st7" width="0.17" height="0.17"/>
	<rect x="28.17" y="12.99" class="st7" width="0.17" height="0.17"/>
	<rect x="28.17" y="12.83" class="st6" width="0.17" height="0.17"/>
	<rect x="28" y="16.49" class="st4" width="0.17" height="0.17"/>
	<rect x="28" y="16.33" class="st0" width="0.17" height="0.17"/>
	<rect x="28" y="16.16" class="st0" width="0.17" height="0.17"/>
	<rect x="28" y="15.99" class="st3" width="0.17" height="0.17"/>
	<rect x="28" y="15.83" class="st3" width="0.17" height="0.17"/>
	<rect x="28" y="15.66" class="st3" width="0.17" height="0.17"/>
	<rect x="28" y="15.49" class="st3" width="0.17" height="0.17"/>
	<rect x="28" y="15.33" class="st2" width="0.17" height="0.17"/>
	<rect x="28" y="13.99" class="st1" width="0.17" height="0.17"/>
	<rect x="28" y="13.83" class="st5" width="0.17" height="0.17"/>
	<rect x="28" y="13.66" class="st7" width="0.17" height="0.17"/>
	<rect x="28" y="13.49" class="st7" width="0.17" height="0.17"/>
	<rect x="28" y="13.33" class="st7" width="0.17" height="0.17"/>
	<rect x="28" y="13.16" class="st7" width="0.17" height="0.17"/>
	<rect x="28" y="12.99" class="st7" width="0.17" height="0.17"/>
	<rect x="28" y="12.83" class="st7" width="0.17" height="0.17"/>
	<rect x="28" y="12.66" class="st6" width="0.17" height="0.17"/>
	<rect x="27.83" y="16.49" class="st4" width="0.17" height="0.17"/>
	<rect x="27.83" y="16.33" class="st0" width="0.17" height="0.17"/>
	<rect x="27.83" y="16.16" class="st5" width="0.17" height="0.17"/>
	<rect x="27.83" y="15.99" class="st3" width="0.17" height="0.17"/>
	<rect x="27.83" y="15.83" class="st3" width="0.17" height="0.17"/>
	<rect x="27.83" y="15.66" class="st3" width="0.17" height="0.17"/>
	<rect x="27.83" y="15.49" class="st3" width="0.17" height="0.17"/>
	<rect x="27.83" y="15.33" class="st2" width="0.17" height="0.17"/>
	<rect x="27.83" y="15.16" class="st8" width="0.17" height="0.17"/>
	<rect x="27.83" y="14.99" class="st8" width="0.17" height="0.17"/>
	<rect x="27.83" y="14.83" class="st8" width="0.17" height="0.17"/>
	<rect x="27.83" y="14.66" class="st8" width="0.17" height="0.17"/>
	<rect x="27.83" y="14.49" class="st8" width="0.17" height="0.17"/>
	<rect x="27.83" y="14.33" class="st8" width="0.17" height="0.17"/>
	<rect x="27.83" y="14.16" class="st9" width="0.17" height="0.17"/>
	<rect x="27.83" y="13.99" class="st1" width="0.17" height="0.17"/>
	<rect x="27.83" y="13.83" class="st5" width="0.17" height="0.17"/>
	<rect x="27.83" y="13.66" class="st5" width="0.17" height="0.17"/>
	<rect x="27.83" y="13.49" class="st7" width="0.17" height="0.17"/>
	<rect x="27.83" y="13.33" class="st7" width="0.17" height="0.17"/>
	<rect x="27.83" y="13.16" class="st7" width="0.17" height="0.17"/>
	<rect x="27.83" y="12.99" class="st7" width="0.17" height="0.17"/>
	<rect x="27.83" y="12.83" class="st7" width="0.17" height="0.17"/>
	<rect x="27.83" y="12.66" class="st6" width="0.17" height="0.17"/>
	<rect x="27.67" y="16.49" class="st4" width="0.17" height="0.17"/>
	<rect x="27.67" y="16.33" class="st0" width="0.17" height="0.17"/>
	<rect x="27.67" y="16.16" class="st0" width="0.17" height="0.17"/>
	<rect x="27.67" y="15.99" class="st3" width="0.17" height="0.17"/>
	<rect x="27.67" y="15.83" class="st3" width="0.17" height="0.17"/>
	<rect x="27.67" y="15.66" class="st3" width="0.17" height="0.17"/>
	<rect x="27.67" y="15.49" class="st3" width="0.17" height="0.17"/>
	<rect x="27.67" y="15.33" class="st2" width="0.17" height="0.17"/>
	<rect x="27.67" y="15.16" class="st8" width="0.17" height="0.17"/>
	<rect x="27.67" y="14.99" class="st8" width="0.17" height="0.17"/>
	<rect x="27.67" y="14.83" class="st8" width="0.17" height="0.17"/>
	<rect x="27.67" y="14.66" class="st8" width="0.17" height="0.17"/>
	<rect x="27.67" y="14.49" class="st8" width="0.17" height="0.17"/>
	<rect x="27.67" y="14.33" class="st8" width="0.17" height="0.17"/>
	<rect x="27.67" y="14.16" class="st9" width="0.17" height="0.17"/>
	<rect x="27.67" y="13.99" class="st1" width="0.17" height="0.17"/>
	<rect x="27.67" y="13.83" class="st5" width="0.17" height="0.17"/>
	<rect x="27.67" y="13.66" class="st5" width="0.17" height="0.17"/>
	<rect x="27.67" y="13.49" class="st5" width="0.17" height="0.17"/>
	<rect x="27.67" y="13.33" class="st7" width="0.17" height="0.17"/>
	<rect x="27.67" y="13.16" class="st7" width="0.17" height="0.17"/>
	<rect x="27.67" y="12.99" class="st7" width="0.17" height="0.17"/>
	<rect x="27.67" y="12.83" class="st7" width="0.17" height="0.17"/>
	<rect x="27.67" y="12.66" class="st6" width="0.17" height="0.17"/>
	<rect x="27.5" y="16.49" class="st4" width="0.17" height="0.17"/>
	<rect x="27.5" y="16.33" class="st0" width="0.17" height="0.17"/>
	<rect x="27.5" y="16.16" class="st0" width="0.17" height="0.17"/>
	<rect x="27.5" y="15.99" class="st3" width="0.17" height="0.17"/>
	<rect x="27.5" y="15.83" class="st3" width="0.17" height="0.17"/>
	<rect x="27.5" y="15.66" class="st3" width="0.17" height="0.17"/>
	<rect x="27.5" y="15.49" class="st3" width="0.17" height="0.17"/>
	<rect x="27.5" y="15.33" class="st3" width="0.17" height="0.17"/>
	<rect x="27.5" y="15.16" class="st9" width="0.17" height="0.17"/>
	<rect x="27.5" y="14.99" class="st9" width="0.17" height="0.17"/>
	<rect x="27.5" y="14.83" class="st9" width="0.17" height="0.17"/>
	<rect x="27.5" y="14.66" class="st9" width="0.17" height="0.17"/>
	<rect x="27.5" y="14.49" class="st9" width="0.17" height="0.17"/>
	<rect x="27.5" y="14.33" class="st9" width="0.17" height="0.17"/>
	<rect x="27.5" y="14.16" class="st9" width="0.17" height="0.17"/>
	<rect x="27.5" y="13.99" class="st1" width="0.17" height="0.17"/>
	<rect x="27.5" y="13.83" class="st5" width="0.17" height="0.17"/>
	<rect x="27.5" y="13.66" class="st5" width="0.17" height="0.17"/>
	<rect x="27.5" y="13.49" class="st5" width="0.17" height="0.17"/>
	<rect x="27.5" y="13.33" class="st5" width="0.17" height="0.17"/>
	<rect x="27.5" y="13.16" class="st7" width="0.17" height="0.17"/>
	<rect x="27.5" y="12.99" class="st7" width="0.17" height="0.17"/>
	<rect x="27.5" y="12.83" class="st7" width="0.17" height="0.17"/>
	<rect x="27.5" y="12.66" class="st6" width="0.17" height="0.17"/>
	<rect x="27.33" y="16.49" class="st4" width="0.17" height="0.17"/>
	<rect x="27.33" y="16.33" class="st0" width="0.17" height="0.17"/>
	<rect x="27.33" y="16.16" class="st1" width="0.17" height="0.17"/>
	<rect x="27.33" y="15.99" class="st7" width="0.17" height="0.17"/>
	<rect x="27.33" y="15.83" class="st7" width="0.17" height="0.17"/>
	<rect x="27.33" y="15.66" class="st3" width="0.17" height="0.17"/>
	<rect x="27.33" y="15.49" class="st3" width="0.17" height="0.17"/>
	<rect x="27.33" y="15.33" class="st3" width="0.17" height="0.17"/>
	<rect x="27.33" y="15.16" class="st4" width="0.17" height="0.17"/>
	<rect x="27.33" y="14.99" class="st4" width="0.17" height="0.17"/>
	<rect x="27.33" y="14.83" class="st4" width="0.17" height="0.17"/>
	<rect x="27.33" y="14.66" class="st4" width="0.17" height="0.17"/>
	<rect x="27.33" y="14.49" class="st4" width="0.17" height="0.17"/>
	<rect x="27.33" y="14.33" class="st4" width="0.17" height="0.17"/>
	<rect x="27.33" y="14.16" class="st4" width="0.17" height="0.17"/>
	<rect x="27.33" y="13.99" class="st1" width="0.17" height="0.17"/>
	<rect x="27.33" y="13.83" class="st5" width="0.17" height="0.17"/>
	<rect x="27.33" y="13.66" class="st5" width="0.17" height="0.17"/>
	<rect x="27.33" y="13.49" class="st5" width="0.17" height="0.17"/>
	<rect x="27.33" y="13.33" class="st5" width="0.17" height="0.17"/>
	<rect x="27.33" y="13.16" class="st5" width="0.17" height="0.17"/>
	<rect x="27.33" y="12.99" class="st5" width="0.17" height="0.17"/>
	<rect x="27.33" y="12.83" class="st7" width="0.17" height="0.17"/>
	<rect x="27.33" y="12.66" class="st6" width="0.17" height="0.17"/>
	<rect x="27.17" y="16.49" class="st4" width="0.17" height="0.17"/>
	<rect x="27.17" y="16.33" class="st0" width="0.17" height="0.17"/>
	<rect x="27.17" y="16.16" class="st1" width="0.17" height="0.17"/>
	<rect x="27.17" y="15.99" class="st0" width="0.17" height="0.17"/>
	<rect x="27.17" y="15.83" class="st5" width="0.17" height="0.17"/>
	<rect x="27.17" y="15.66" class="st3" width="0.17" height="0.17"/>
	<rect x="27.17" y="15.49" class="st3" width="0.17" height="0.17"/>
	<rect x="27.17" y="15.33" class="st3" width="0.17" height="0.17"/>
	<rect x="27.17" y="13.99" class="st4" width="0.17" height="0.17"/>
	<rect x="27.17" y="13.83" class="st1" width="0.17" height="0.17"/>
	<rect x="27.17" y="13.66" class="st5" width="0.17" height="0.17"/>
	<rect x="27.17" y="13.49" class="st5" width="0.17" height="0.17"/>
	<rect x="27.17" y="13.33" class="st5" width="0.17" height="0.17"/>
	<rect x="27.17" y="13.16" class="st5" width="0.17" height="0.17"/>
	<rect x="27.17" y="12.99" class="st5" width="0.17" height="0.17"/>
	<rect x="27.17" y="12.83" class="st1" width="0.17" height="0.17"/>
	<rect x="27" y="16.49" class="st4" width="0.17" height="0.17"/>
	<rect x="27" y="16.33" class="st0" width="0.17" height="0.17"/>
	<rect x="27" y="16.16" class="st1" width="0.17" height="0.17"/>
	<rect x="27" y="15.99" class="st0" width="0.17" height="0.17"/>
	<rect x="27" y="15.83" class="st5" width="0.17" height="0.17"/>
	<rect x="27" y="15.66" class="st3" width="0.17" height="0.17"/>
	<rect x="27" y="15.49" class="st3" width="0.17" height="0.17"/>
	<rect x="27" y="15.33" class="st3" width="0.17" height="0.17"/>
	<rect x="27" y="13.83" class="st4" width="0.17" height="0.17"/>
	<rect x="27" y="13.66" class="st1" width="0.17" height="0.17"/>
	<rect x="27" y="13.49" class="st1" width="0.17" height="0.17"/>
	<rect x="27" y="13.33" class="st1" width="0.17" height="0.17"/>
	<rect x="27" y="13.16" class="st1" width="0.17" height="0.17"/>
	<rect x="27" y="12.99" class="st1" width="0.17" height="0.17"/>
	<rect x="26.83" y="16.49" class="st4" width="0.17" height="0.17"/>
	<rect x="26.83" y="16.33" class="st0" width="0.17" height="0.17"/>
	<rect x="26.83" y="16.16" class="st1" width="0.17" height="0.17"/>
	<rect x="26.83" y="15.99" class="st1" width="0.17" height="0.17"/>
	<rect x="26.83" y="15.83" class="st5" width="0.17" height="0.17"/>
	<rect x="26.83" y="15.66" class="st3" width="0.17" height="0.17"/>
	<rect x="26.83" y="15.49" class="st3" width="0.17" height="0.17"/>
	<rect x="26.83" y="15.33" class="st3" width="0.17" height="0.17"/>
	<rect x="26.83" y="13.66" class="st4" width="0.17" height="0.17"/>
	<rect x="26.83" y="13.49" class="st4" width="0.17" height="0.17"/>
	<rect x="26.83" y="13.33" class="st4" width="0.17" height="0.17"/>
	<rect x="26.83" y="13.16" class="st4" width="0.17" height="0.17"/>
	<rect x="26.67" y="16.49" class="st4" width="0.17" height="0.17"/>
	<rect x="26.67" y="16.33" class="st0" width="0.17" height="0.17"/>
	<rect x="26.67" y="16.16" class="st0" width="0.17" height="0.17"/>
	<rect x="26.67" y="15.99" class="st0" width="0.17" height="0.17"/>
	<rect x="26.67" y="15.83" class="st3" width="0.17" height="0.17"/>
	<rect x="26.67" y="15.66" class="st3" width="0.17" height="0.17"/>
	<rect x="26.67" y="15.49" class="st3" width="0.17" height="0.17"/>
	<rect x="26.67" y="15.33" class="st0" width="0.17" height="0.17"/>
	<rect x="26.5" y="16.33" class="st4" width="0.17" height="0.17"/>
	<rect x="26.5" y="16.16" class="st0" width="0.17" height="0.17"/>
	<rect x="26.5" y="15.99" class="st0" width="0.17" height="0.17"/>
	<rect x="26.5" y="15.83" class="st0" width="0.17" height="0.17"/>
	<rect x="26.5" y="15.66" class="st0" width="0.17" height="0.17"/>
	<rect x="26.5" y="15.49" class="st0" width="0.17" height="0.17"/>
	<rect x="26.5" y="15.33" class="st4" width="0.17" height="0.17"/>
	<rect x="26.33" y="16.16" class="st4" width="0.17" height="0.17"/>
	<rect x="26.33" y="15.99" class="st4" width="0.17" height="0.17"/>
	<rect x="26.33" y="15.83" class="st4" width="0.17" height="0.17"/>
	<rect x="26.33" y="15.66" class="st4" width="0.17" height="0.17"/>
	<rect x="26.33" y="15.49" class="st4" width="0.17" height="0.17"/>
</g>
</svg>
